<svg version="1.2" xmlns="http://www.w3.org/2000/svg" viewBox="0 0 406 406" width="406" height="406"><style>.a{fill:#fff;stroke:#000;stroke-miterlimit:100;stroke-width:5}.b{stroke:#000;stroke-miterlimit:100;stroke-width:5}.c{fill:#fff;stroke:#fff;stroke-miterlimit:100;stroke-width:5}</style><path class="a" d="m203 403c-110.6 0-200-89.4-200-200 0-110.6 89.4-200 200-200 110.6 0 200 89.4 200 200 0 110.6-89.4 200-200 200z"/><path class="b" d="m203 368c-91.2 0-165-73.8-165-165 0-91.2 73.8-165 165-165 91.2 0 165 73.8 165 165 0 91.2-73.8 165-165 165z"/><path class="c" d="m289 143v14h-172v-14zm10 0l-7.5 12.6-7.5-12.6zm-192 14.3l7.5-12.6 7.5 12.5z"/><path class="c" d="m289 113v14h-172v-14zm10 0l-7.5 12.6-7.5-12.6zm-192 14.3l7.5-12.6 7.5 12.5z"/><path class="c" d="m190 100h26v206h-26z"/></svg>